<svg id="e4bc123b-55bf-4a4c-85b2-c7f529a582d0" data-name="Layer 1" xmlns="http://www.w3.org/2000/svg" viewBox="0 0 141.17 124.43"><defs><style>.bf0fe8e5-ff1a-41dc-a490-ce73a1649497{fill:none;stroke:#898989;stroke-linecap:round;stroke-miterlimit:10;stroke-width:3px;}.ae8db970-4ddb-4b83-a2cc-0c7e7caa330b{fill:#898989;}</style></defs><title>failed_ic</title><line class="bf0fe8e5-ff1a-41dc-a490-ce73a1649497" x1="62.22" y1="114.15" x2="62.22" y2="122.93"/><line class="bf0fe8e5-ff1a-41dc-a490-ce73a1649497" x1="85.07" y1="101.81" x2="92.57" y2="114.8"/><line class="bf0fe8e5-ff1a-41dc-a490-ce73a1649497" x1="101.81" y1="85.07" x2="114.8" y2="92.57"/><line class="bf0fe8e5-ff1a-41dc-a490-ce73a1649497" x1="107.93" y1="62.22" x2="122.93" y2="62.22"/><line class="bf0fe8e5-ff1a-41dc-a490-ce73a1649497" x1="101.81" y1="39.36" x2="114.8" y2="31.86"/><line class="bf0fe8e5-ff1a-41dc-a490-ce73a1649497" x1="85.07" y1="22.62" x2="92.57" y2="9.63"/><line class="bf0fe8e5-ff1a-41dc-a490-ce73a1649497" x1="62.22" y1="16.5" x2="62.22" y2="1.5"/><line class="bf0fe8e5-ff1a-41dc-a490-ce73a1649497" x1="39.36" y1="22.62" x2="31.86" y2="9.63"/><line class="bf0fe8e5-ff1a-41dc-a490-ce73a1649497" x1="22.62" y1="39.36" x2="9.63" y2="31.86"/><line class="bf0fe8e5-ff1a-41dc-a490-ce73a1649497" x1="16.5" y1="62.22" x2="1.5" y2="62.22"/><line class="bf0fe8e5-ff1a-41dc-a490-ce73a1649497" x1="22.62" y1="85.07" x2="9.63" y2="92.57"/><line class="bf0fe8e5-ff1a-41dc-a490-ce73a1649497" x1="39.36" y1="101.81" x2="31.86" y2="114.8"/><path class="ae8db970-4ddb-4b83-a2cc-0c7e7caa330b" d="M141.17,99.49a18.48,18.48,0,0,0-23.83-17.71A19,19,0,0,0,99,67.45a18.78,18.78,0,0,0-17,10.61l-1,2-2.27.19A18.88,18.88,0,0,0,80.4,118h44.05v-.09A18.5,18.5,0,0,0,141.17,99.49Z"/><path class="ae8db970-4ddb-4b83-a2cc-0c7e7caa330b" d="M62.22,24.67a37.69,37.69,0,0,0-4.69,75.09c0-.22,0-.43,0-.65a22.89,22.89,0,0,1,20.94-22.8A22.86,22.86,0,0,1,99,63.45c.28,0,.56,0,.84,0,0-.38,0-.75,0-1.12A37.7,37.7,0,0,0,62.22,24.67Zm-15,44.89a2.38,2.38,0,0,1-.39,0,2.56,2.56,0,0,1-.39,0,2.77,2.77,0,0,1-2-4l2.35-4.85,2.36,4.85A2.77,2.77,0,0,1,47.23,69.56ZM46.84,57a2.9,2.9,0,1,1,2.9-2.89A2.89,2.89,0,0,1,46.84,57Zm9.22,14.31,6.16-6.15,6.15,6.15ZM77.59,57a2.9,2.9,0,1,1,2.89-2.89A2.89,2.89,0,0,1,77.59,57Z"/></svg>