<svg id="f46e46b5-8c06-4e4f-b3b4-fae767468cdc" data-name="Layer 1" xmlns="http://www.w3.org/2000/svg" viewBox="0 0 124.43 124.8"><defs><style>.a6869a71-97e7-463e-9b35-6aa7d94ed0e3{fill:none;stroke:#898989;stroke-linecap:round;stroke-miterlimit:10;stroke-width:3px;}.a9838cab-6834-43ff-bf6c-3178f587bdca{fill:#898989;}</style></defs><title>makefeed_ic</title><line class="a6869a71-97e7-463e-9b35-6aa7d94ed0e3" x1="85.07" y1="101.81" x2="92.57" y2="114.8"/><line class="a6869a71-97e7-463e-9b35-6aa7d94ed0e3" x1="101.81" y1="85.07" x2="114.8" y2="92.57"/><line class="a6869a71-97e7-463e-9b35-6aa7d94ed0e3" x1="107.93" y1="62.22" x2="122.93" y2="62.22"/><line class="a6869a71-97e7-463e-9b35-6aa7d94ed0e3" x1="101.81" y1="39.36" x2="114.8" y2="31.86"/><line class="a6869a71-97e7-463e-9b35-6aa7d94ed0e3" x1="85.07" y1="22.62" x2="92.57" y2="9.63"/><line class="a6869a71-97e7-463e-9b35-6aa7d94ed0e3" x1="62.22" y1="16.5" x2="62.22" y2="1.5"/><line class="a6869a71-97e7-463e-9b35-6aa7d94ed0e3" x1="39.36" y1="22.62" x2="31.86" y2="9.63"/><line class="a6869a71-97e7-463e-9b35-6aa7d94ed0e3" x1="22.62" y1="39.36" x2="9.63" y2="31.86"/><line class="a6869a71-97e7-463e-9b35-6aa7d94ed0e3" x1="16.5" y1="62.22" x2="1.5" y2="62.22"/><line class="a6869a71-97e7-463e-9b35-6aa7d94ed0e3" x1="22.62" y1="85.07" x2="9.63" y2="92.57"/><line class="a6869a71-97e7-463e-9b35-6aa7d94ed0e3" x1="39.36" y1="101.81" x2="31.86" y2="114.8"/><path class="a9838cab-6834-43ff-bf6c-3178f587bdca" d="M62.22,24.67A37.55,37.55,0,1,0,99.76,62.22,37.55,37.55,0,0,0,62.22,24.67ZM46.84,57a2.9,2.9,0,1,1,2.9-2.89A2.89,2.89,0,0,1,46.84,57ZM62.22,71.31l-6.16-6.15H68.37ZM77.59,57a2.9,2.9,0,1,1,2.89-2.89A2.89,2.89,0,0,1,77.59,57Z"/><line class="a6869a71-97e7-463e-9b35-6aa7d94ed0e3" x1="62.22" y1="123.3" x2="62.22" y2="108.3"/></svg>