<svg width="42" height="42" viewBox="0 0 42 42" fill="none" xmlns="http://www.w3.org/2000/svg">
<path d="M9.1875 21C9.1875 17.8671 10.432 14.8626 12.6473 12.6473C14.8626 10.432 17.8671 9.1875 21 9.1875C24.1329 9.1875 27.1374 10.432 29.3527 12.6473C31.568 14.8626 32.8125 17.8671 32.8125 21C32.8125 24.1329 31.568 27.1374 29.3527 29.3527C27.1374 31.568 24.1329 32.8125 21 32.8125C17.8671 32.8125 14.8626 31.568 12.6473 29.3527C10.432 27.1374 9.1875 24.1329 9.1875 21Z" fill="black"/>
<path fill-rule="evenodd" clip-rule="evenodd" d="M21.5302 0.735023C21.4693 0.651498 21.3895 0.583543 21.2974 0.536693C21.2052 0.489843 21.1033 0.465424 21 0.465424C20.8966 0.465424 20.7947 0.489843 20.7025 0.536693C20.6104 0.583543 20.5306 0.651498 20.4697 0.735023L18.081 4.0294C17.9841 4.16411 17.8399 4.25715 17.6772 4.28978C17.5145 4.32241 17.3455 4.29221 17.2042 4.20527L13.734 2.07377C13.6456 2.01951 13.5456 1.98696 13.4423 1.97878C13.3389 1.97061 13.2351 1.98704 13.1393 2.02674C13.0435 2.06644 12.9585 2.12827 12.8912 2.20717C12.8239 2.28607 12.7763 2.37979 12.7522 2.48065L11.8072 6.43915C11.7695 6.60032 11.6722 6.74127 11.5349 6.83376C11.3977 6.92625 11.2305 6.96345 11.067 6.9379L7.04547 6.29477C6.94319 6.27859 6.83854 6.28684 6.74007 6.31884C6.64159 6.35085 6.55208 6.4057 6.47886 6.47892C6.40565 6.55214 6.35079 6.64164 6.31879 6.74012C6.28678 6.8386 6.27853 6.94325 6.29472 7.04552L6.93522 11.067C6.96086 11.2302 6.92403 11.3971 6.83206 11.5343C6.7401 11.6715 6.59977 11.769 6.43909 11.8073L2.47797 12.7523C2.37734 12.7767 2.28391 12.8245 2.20532 12.892C2.12672 12.9594 2.0652 13.0444 2.02578 13.1402C1.98635 13.2359 1.97014 13.3396 1.97847 13.4429C1.98681 13.5461 2.01944 13.6458 2.07372 13.734L4.20522 17.2043C4.29138 17.3453 4.32114 17.5137 4.28853 17.6758C4.25592 17.8378 4.16336 17.9816 4.02934 18.0784L0.732343 20.4671C0.648306 20.528 0.579892 20.6079 0.532714 20.7003C0.485536 20.7927 0.460938 20.895 0.460938 20.9987C0.460938 21.1025 0.485536 21.2047 0.532714 21.2971C0.579892 21.3895 0.648306 21.4694 0.732343 21.5303L4.02934 23.919C4.16406 24.0159 4.25709 24.1601 4.28972 24.3228C4.32235 24.4855 4.29216 24.6545 4.20522 24.7958L2.07372 28.266C2.01944 28.3542 1.98681 28.454 1.97847 28.5572C1.97014 28.6604 1.98635 28.7641 2.02578 28.8599C2.0652 28.9556 2.12672 29.0407 2.20532 29.1081C2.28391 29.1755 2.37734 29.2234 2.47797 29.2478L6.44172 30.1928C6.60191 30.2316 6.74162 30.3294 6.83305 30.4665C6.92449 30.6037 6.96096 30.7702 6.93522 30.933L6.29472 34.9545C6.27853 35.0568 6.28678 35.1614 6.31879 35.2599C6.35079 35.3584 6.40565 35.4479 6.47886 35.5211C6.55208 35.5943 6.64159 35.6492 6.74007 35.6812C6.83854 35.7132 6.94319 35.7215 7.04547 35.7053L11.067 35.0648C11.2301 35.0391 11.397 35.076 11.5342 35.1679C11.6714 35.2599 11.7689 35.4002 11.8072 35.5609L12.7522 39.5194C12.7763 39.6203 12.8239 39.714 12.8912 39.7929C12.9585 39.8718 13.0435 39.9336 13.1393 39.9733C13.2351 40.013 13.3389 40.0294 13.4423 40.0213C13.5456 40.0131 13.6456 39.9805 13.734 39.9263L17.2042 37.7948C17.3453 37.7086 17.5137 37.6789 17.6757 37.7115C17.8378 37.7441 17.9816 37.8366 18.0783 37.9706L20.4671 41.2677C20.5279 41.3517 20.6078 41.4201 20.7002 41.4673C20.7926 41.5145 20.8949 41.5391 20.9987 41.5391C21.1024 41.5391 21.2047 41.5145 21.2971 41.4673C21.3895 41.4201 21.4694 41.3517 21.5302 41.2677L23.919 37.9706C24.0158 37.8359 24.1601 37.7429 24.3228 37.7103C24.4854 37.6776 24.6544 37.7078 24.7957 37.7948L28.266 39.9263C28.3543 39.9805 28.4543 40.0131 28.5577 40.0213C28.661 40.0294 28.7649 40.013 28.8606 39.9733C28.9564 39.9336 29.0415 39.8718 29.1087 39.7929C29.176 39.714 29.2236 39.6203 29.2477 39.5194L30.1927 35.5609C30.2305 35.3997 30.3277 35.2588 30.465 35.1663C30.6023 35.0738 30.7694 35.0366 30.933 35.0622L34.9545 35.7053C35.0567 35.7215 35.1614 35.7132 35.2599 35.6812C35.3583 35.6492 35.4479 35.5943 35.5211 35.5211C35.5943 35.4479 35.6491 35.3584 35.6811 35.2599C35.7132 35.1614 35.7214 35.0568 35.7052 34.9545L35.0647 30.933C35.0391 30.7698 35.0759 30.603 35.1679 30.4658C35.2598 30.3286 35.4002 30.2311 35.5608 30.1928L39.5193 29.2478C39.6202 29.2237 39.7139 29.1761 39.7928 29.1088C39.8717 29.0415 39.9335 28.9565 39.9732 28.8607C40.0129 28.7649 40.0294 28.6611 40.0212 28.5577C40.013 28.4543 39.9805 28.3544 39.9262 28.266L37.7947 24.7958C37.7085 24.6547 37.6788 24.4863 37.7114 24.3243C37.744 24.1622 37.8366 24.0184 37.9706 23.9216L41.2676 21.5329C41.3516 21.4721 41.42 21.3922 41.4672 21.2998C41.5144 21.2074 41.539 21.1051 41.539 21.0013C41.539 20.8976 41.5144 20.7953 41.4672 20.7029C41.42 20.6105 41.3516 20.5306 41.2676 20.4698L37.9706 18.081C37.8359 17.9842 37.7428 17.8399 37.7102 17.6772C37.6776 17.5146 37.7078 17.3456 37.7947 17.2043L39.9262 13.734C39.9805 13.6457 40.013 13.5457 40.0212 13.4423C40.0294 13.339 40.0129 13.2351 39.9732 13.1393C39.9335 13.0436 39.8717 12.9585 39.7928 12.8913C39.7139 12.824 39.6202 12.7763 39.5193 12.7523L35.5608 11.8073C35.3997 11.7695 35.2587 11.6723 35.1662 11.535C35.0737 11.3977 35.0365 11.2306 35.0621 11.067L35.7052 7.04552C35.7214 6.94325 35.7132 6.8386 35.6811 6.74012C35.6491 6.64164 35.5943 6.55214 35.5211 6.47892C35.4479 6.4057 35.3583 6.35085 35.2599 6.31884C35.1614 6.28684 35.0567 6.27859 34.9545 6.29477L30.933 6.93527C30.7698 6.96092 30.6029 6.92408 30.4657 6.83212C30.3285 6.74016 30.231 6.59983 30.1927 6.43915L29.2477 2.48065C29.2236 2.37979 29.176 2.28607 29.1087 2.20717C29.0415 2.12827 28.9564 2.06644 28.8606 2.02674C28.7649 1.98704 28.661 1.97061 28.5577 1.97878C28.4543 1.98696 28.3543 2.01951 28.266 2.07377L24.7957 4.20527C24.6546 4.29144 24.4863 4.32119 24.3242 4.28859C24.1621 4.25598 24.0184 4.16342 23.9216 4.0294L21.5328 0.735023H21.5302ZM21 6.56252C17.1709 6.56252 13.4987 8.08361 10.7911 10.7912C8.08356 13.4987 6.56247 17.171 6.56247 21C6.56247 24.8291 8.08356 28.5013 10.7911 31.2089C13.4987 33.9164 17.1709 35.4375 21 35.4375C24.829 35.4375 28.5013 33.9164 31.2088 31.2089C33.9164 28.5013 35.4375 24.8291 35.4375 21C35.4375 17.171 33.9164 13.4987 31.2088 10.7912C28.5013 8.08361 24.829 6.56252 21 6.56252Z" fill="black"/>
</svg>
